Coordinates
version=1
nRows=15
nColumns=19
inDegrees=yes

Units are S.I. units (second, meters, Newtons, ...)
If the header above contains a line with 'inDegrees', this indicates whether rotational values are in degrees (yes) or radians (no).

endheader
time	pelvis_tilt	pelvis_list	pelvis_rotation	pelvis_tx	pelvis_ty	pelvis_tz	hip_flexion_r	hip_adduction_r	hip_rotation_r	knee_angle_r	knee_angle_r_beta	ankle_angle_r	hip_flexion_l	hip_adduction_l	hip_rotation_l	knee_angle_l	knee_angle_l_beta	ankle_angle_l
     15.25333333	     -4.70554410	    -10.65255283	     -7.21243285	      2.16644356	      0.94479625	      1.00682775	     31.61539061	     14.90911766	    -14.13635883	     21.00084342	      0.36653386	      5.41835757	    -10.38158456	    -14.08913783	    -12.39606026	     70.00556201	      1.22182755	    -18.14016520
     15.26000000	     -4.19194614	    -11.17690548	     -7.92512803	      2.16482411	      0.94092947	      1.00714944	     31.50797339	     15.12321413	    -15.07926145	     24.48823892	      0.42740040	      5.58065083	     -9.28546124	    -14.67010576	    -12.30885696	     74.21261035	      1.29525440	    -17.63194913
     15.26666667	     -3.63480255	    -11.66478987	     -8.64853928	      2.16326157	      0.93685082	      1.00736092	     31.25201726	     15.23787781	    -15.71393197	     28.16820600	      0.49162794	      5.99783130	     -8.17929729	    -15.26865968	    -12.29204470	     78.22280163	      1.36524544	    -17.07109641
     15.27333333	     -2.77806669	    -12.34485821	     -9.36745266	      2.16185997	      0.93302092	      1.00757716	     30.40344970	     15.55936350	    -15.93459163	     31.67660882	      0.55286112	      6.73203121	     -7.47028178	    -16.17440896	    -12.49761875	     81.94057614	      1.43013284	    -16.42221574
     15.28000000	     -2.75702357	    -12.48230831	    -10.09769158	      2.16024853	      0.92821997	      1.00783901	     30.47862230	     15.45303450	    -15.67822063	     35.34049966	      0.61680808	      7.85767094	     -5.45876273	    -16.59214616	    -12.23168629	     85.63324170	      1.49458202	    -15.66885386
     15.28666667	     -2.52449735	    -12.81914873	    -10.77375601	      2.15871662	      0.92391254	      1.00823091	     29.98985970	     15.66189762	    -15.06641436	     38.54926844	      0.67281166	      9.34274616	     -3.69235501	    -17.36493428	    -12.05316254	     89.01064161	      1.55352877	    -14.83563638
     15.29333333	     -2.44004692	    -13.09490427	    -11.37161980	      2.15713152	      0.91984152	      1.00873623	     29.41385621	     15.93468114	    -14.18420180	     41.38016463	      0.72222012	     11.15977337	     -1.59679301	    -18.18887253	    -11.68052222	     92.13573229	      1.60807189	    -13.94140976
     15.30000000	     -2.49208408	    -13.33284886	    -11.85315784	      2.15550764	      0.91618561	      1.00932034	     28.70508975	     16.26652095	    -13.16288018	     43.74748003	      0.76353757	     13.23135015	      0.83651325	    -19.07743771	    -11.06852469	     94.97684185	      1.65765860	    -13.02997017
     15.30666667	     -2.63572190	    -13.55490114	    -12.16351522	      2.15390658	      0.91313775	      1.00990445	     27.78500808	     16.62174188	    -12.13549145	     45.58176587	      0.79555189	     15.43604570	      3.57452770	    -20.00305548	    -10.16076898	     97.49147322	      1.70154720	    -12.07854999
     15.31333333	     -2.82730315	    -13.68698681	    -12.26275151	      2.15236228	      0.91084610	      1.01036337	     26.62177350	     16.87145081	    -11.16163897	     46.88185341	      0.81824270	     17.70377705	      6.60637581	    -20.79769257	     -8.92976558	     99.62805071	      1.73883751	    -11.16533251
     15.32000000	     -2.58947630	    -13.85302457	    -12.26213839	      2.15106182	      0.90998733	      1.01080458	     24.59877046	     17.11874508	    -10.07193345	     47.56314815	      0.83013354	     20.00737118	      9.15142632	    -21.51009507	     -7.75555241	    101.19523493	      1.76619004	    -10.24245191
     15.32666667	     -2.92975505	    -14.01157322	    -11.72203405	      2.14991636	      0.90923752	      1.01073421	     22.97777774	     17.20337295	     -9.66892419	     47.64641023	      0.83158674	     21.81636432	     12.85227918	    -22.15537146	     -5.71631414	    102.57052077	      1.79019330	     -9.43435555
     15.33333333	     -2.93741631	    -14.02431747	    -11.16539780	      2.14902340	      0.90972964	      1.01066462	     20.70930019	     17.11847049	     -9.11991161	     47.24497787	      0.82458042	     23.46055220	     16.10200450	    -22.43396813	     -3.90638632	    103.34309378	      1.80367725	     -8.63193718
     15.34000000	     -2.75236323	    -13.99896129	    -10.37673719	      2.14851474	      0.91125206	      1.01039225	     17.96508047	     16.90621697	     -8.75283736	     46.29848366	      0.80806098	     24.65717075	     19.13652367	    -22.48089191	     -2.08194555	    103.60606718	      1.80826700	     -7.85034513
     15.34666667	     -2.45397905	    -13.88884592	     -9.39366095	      2.14837252	      0.91360054	      1.00995478	     14.88913116	     16.54857210	     -8.59646714	     44.88330303	      0.78336142	     25.37904316	     21.98722656	    -22.24252198	     -0.30346984	    103.38370832	      1.80438610	     -7.08956594
